<svg xmlns="http://www.w3.org/2000/svg" width="70" height="85" viewBox="0 0 70 85">
    <path fill="#3F7AF2" fill-rule="nonzero" d="M0 0h70v84.737H0V0zm3.684 3.684v77.369h62.632V3.684H3.684zm7.369 44.21v-3.683h47.894v3.684H11.053zm0-10.21V34h47.894v3.684H11.053zm0 23.105v-3.684h47.894v3.684H11.053zm0 12.895V70H35v3.684H11.053zm1.127-52.402v-6.201h2.43c1.782 0 2.817 1.35 2.817 3.114 0 1.755-1.035 3.087-2.816 3.087h-2.43zm1.252-1.107h1.178c1.036 0 1.567-.918 1.567-1.98 0-1.062-.531-2.007-1.566-2.007h-1.18v3.987zm5.156 1.107v-6.201h1.252v6.201h-1.252zm4.645.081c-1.323 0-2.233-.81-2.233-1.908h1.252c.009.45.44.819 1.017.819.558 0 .927-.288.927-.729 0-.342-.253-.585-.784-.747l-.755-.216c-1.36-.36-1.602-1.179-1.602-1.737 0-1.107.954-1.845 2.142-1.845 1.17 0 2.07.711 2.07 1.89h-1.252c0-.441-.306-.783-.846-.783-.486 0-.855.297-.855.711 0 .153.046.477.694.657l.693.198c.936.261 1.755.756 1.755 1.809 0 1.233-1.053 1.881-2.223 1.881zm7.209-.081l-.505-1.485h-2.322l-.494 1.485h-1.332l2.313-6.201h1.35l2.303 6.201h-1.313zm-2.457-2.574h1.575l-.793-2.331-.782 2.331zm7.901-.738c.792.135 1.18.837 1.18 1.539 0 .855-.586 1.773-1.954 1.773h-2.645v-6.201h2.456c1.108 0 1.819.666 1.819 1.602 0 .459-.18 1.08-.855 1.287zm-1.035-1.782h-1.133v1.359h1.133c.397 0 .64-.261.64-.684 0-.378-.199-.675-.64-.675zm.081 3.987c.585 0 .873-.378.873-.792 0-.387-.26-.792-.855-.792h-1.233v1.584h1.215zm3.276 1.107v-6.201h1.252v6.201h-1.252zm2.764 0v-6.201h1.25v5.094h2.35v1.107h-3.6zm4.535 0v-6.201h1.252v6.201h-1.252zm6.858-6.201v1.107h-1.71v5.094h-1.25v-5.094h-1.71v-1.107h4.67zm4.743 0h1.486l-2.413 3.402v2.799h-1.25v-2.817l-2.403-3.384h1.494l1.53 2.358 1.556-2.358z"/>
</svg>
