<svg xmlns="http://www.w3.org/2000/svg" width="80" height="80" viewBox="0 0 80 80">
    <path fill="#3F7AF2" fill-rule="nonzero" d="M51.064 60.933V47.067c0-.958.762-1.734 1.702-1.734h25.532c.94 0 1.702.776 1.702 1.734v26C80 76.894 76.95 80 73.191 80H6.81C3.049 80 0 76.894 0 73.067v-26c0-.958.762-1.734 1.702-1.734h25.532c.94 0 1.702.776 1.702 1.734v13.866h22.128zM76.596 48.8H54.468v13.867c0 .957-.762 1.733-1.702 1.733H27.234c-.94 0-1.702-.776-1.702-1.733V48.8H3.404v24.267c0 1.913 1.526 3.466 3.405 3.466H73.19c1.88 0 3.405-1.553 3.405-3.466V48.8zm-62.5-45.438v33.624c0 .928-.768 1.68-1.715 1.68-.947 0-1.714-.752-1.714-1.68V1.68C10.667.753 11.434 0 12.38 0h56.571c.947 0 1.715.753 1.715 1.681v35.305c0 .928-.768 1.68-1.715 1.68-.946 0-1.714-.752-1.714-1.68V3.362H14.095zm12.963 15.305c-.953 0-1.726-.896-1.726-2 0-1.105.773-2 1.726-2H52.94c.953 0 1.726.895 1.726 2 0 1.104-.773 2-1.726 2H27.06zm0 16c-.953 0-1.726-.896-1.726-2 0-1.105.773-2 1.726-2H52.94c.953 0 1.726.895 1.726 2 0 1.104-.773 2-1.726 2H27.06z"/>
</svg>
