<svg xmlns="http://www.w3.org/2000/svg" xmlns:xlink="http://www.w3.org/1999/xlink" width="160" height="160" viewBox="0 0 160 160">
    <defs>
        <circle id="b" cx="60" cy="60" r="60"/>
        <filter id="a" width="153.3%" height="153.3%" x="-26.7%" y="-23.3%" filterUnits="objectBoundingBox">
            <feOffset dy="4" in="SourceAlpha" result="shadowOffsetOuter1"/>
            <feGaussianBlur in="shadowOffsetOuter1" result="shadowBlurOuter1" stdDeviation="10"/>
            <feColorMatrix in="shadowBlurOuter1" values="0 0 0 0 0 0 0 0 0 0 0 0 0 0 0 0 0 0 0.35 0"/>
        </filter>
        <path id="c" d="M0 .09h104.908v104.887H0z"/>
    </defs>
    <g fill="none" fill-rule="evenodd">
        <g fill-rule="nonzero" transform="translate(20 16)">
            <use fill="#000" filter="url(#a)" xlink:href="#b"/>
            <use fill="#FFF" xlink:href="#b"/>
        </g>
        <g transform="translate(27.8 23.8)">
            <mask id="d" fill="#fff">
                <use xlink:href="#c"/>
            </mask>
            <path fill="#003A65" d="M104.908 52.545c0 28.97-23.483 52.455-52.453 52.455C23.485 105 0 81.515 0 52.545S23.485.09 52.455.09s52.453 23.486 52.453 52.455" mask="url(#d)"/>
        </g>
        <path fill="#FFFFFE" d="M122.349 76.345c0 23.249-18.846 42.094-42.094 42.094-23.249 0-42.096-18.845-42.096-42.094 0-23.248 18.847-42.095 42.096-42.095 23.248 0 42.094 18.847 42.094 42.095"/>
        <path fill="#FFFFFE" d="M63.545 121.689l.69-1.664-3.12-1.293c-.428-.177-.658-.178-.82.215l-.298.716c-.163.394 0 .556.428.733l3.12 1.293zm.938 1.593l-5.108-2.116c-.913-.379-1.207-.879-.862-1.711l.58-1.398c.344-.832.906-.979 1.82-.6l.785.325-1.817-3.394 1.988.825 1.47 3.249 1.317.546.934-2.253 1.364.565-2.471 5.962zM53.976 118.28l-5.365-3.851.642-.895 4.146 2.976.839-1.169-2.419-1.735.642-.894 2.418 1.736.934-1.3-4.197-3.013.708-.986 5.415 3.888-3.763 5.243M45.29 109.639l3.074-2.697-2.673-3.046-1.043.916-.755-1.335.574-.502c.911-.801 1.402-.716 2.202.196l2.54 2.896c.8.91.821 1.409-.091 2.209l-2.557 2.243c-.911.8-1.402.715-2.202-.197l-2.54-2.895c-.8-.912-.821-1.41.09-2.21l.461-.404 1.169.972-.921.808 2.672 3.046M39.797 94.224l-3.641 1.862 2.255 4.41 3.642-1.862-2.256-4.41zm-2.456 6.707l-2.164-4.232c-.553-1.08-.451-1.567.63-2.12l3.028-1.55c1.08-.552 1.535-.348 2.088.731l2.164 4.232c.552 1.08.45 1.568-.63 2.12l-3.028 1.55c-1.08.551-1.535.349-2.088-.731zM33.595 88.921l1.757-.398-.747-3.295c-.102-.451-.235-.64-.65-.545l-.756.172c-.415.094-.453.32-.351.772l.747 3.294zm-.76 1.686l-1.222-5.393c-.22-.964.02-1.492.899-1.692l1.476-.334c.878-.2 1.322.174 1.541 1.139l.188.829 1.72-3.443.477 2.098-1.804 3.077.316 1.391 2.379-.54.327 1.44-6.296 1.428zM36.106 75.724c.034-1.902-.424-2.86-2.025-2.889-1.314-.024-2.027.677-2.052 2.09l-.048 2.665 4.09.073.035-1.94zm-5.302 3.347l.074-4.153c.042-2.415 1.254-3.67 3.255-3.634 1.213.022 2.205.565 2.74 1.475.376.632.473 1.51.453 2.661l-.067 3.766-6.455-.115zM34.667 60.298l1.674.665 1.247-3.14c.17-.43.168-.66-.227-.817l-.721-.286c-.396-.157-.556.008-.726.439l-1.247 3.14zm-1.58.962l2.041-5.14c.365-.919.861-1.22 1.699-.888l1.406.559c.838.332.993.892.628 1.81l-.314.791 3.366-1.866-.794 2-3.228 1.518-.526 1.326 2.267.9-.545 1.372-6-2.382zM37.935 50.682l3.772-5.421.903.628-2.914 4.19 1.181.821 1.7-2.444.904.629-1.7 2.443 1.315.915 2.949-4.242.996.694-3.807 5.473-5.299-3.686M46.48 41.813l1.16 1.262 2.486-2.285c.34-.314.438-.522.15-.835l-.465-.507c-.288-.313-.504-.233-.845.08l-2.486 2.285zm-1.84.18l4.07-3.742c.728-.668 1.306-.724 1.915-.06l.974 1.058c.61.664.505 1.235-.223 1.903l-2.983 2.742 1.7 1.851-1.086 1-4.367-4.753zM54.841 35.243l.888 1.568 2.94-1.665c.402-.228.543-.409.334-.779l-.382-.675c-.21-.37-.438-.34-.84-.113l-2.94 1.664zm-1.833-.241l4.811-2.725c.86-.486 1.436-.41 1.88.374l.745 1.317c.444.783.214 1.316-.646 1.804l-.74.418 3.793.656-1.873 1.06-3.466-.84-1.24.702 1.2 2.123-1.283.727-3.18-5.616zM70.983 33.1l-1.077-3.947-4.78 1.304 1.078 3.946 4.78-1.304zm-6.063-3.78l4.587-1.251c1.17-.32 1.627-.12 1.946 1.05l.896 3.283c.32 1.171.028 1.575-1.143 1.894l-4.586 1.252c-1.17.32-1.627.12-1.947-1.05l-.896-3.284c-.32-1.17-.027-1.574 1.143-1.894zM79.478 32.2c1.9-.027 2.845-.515 2.823-2.116-.018-1.313-.741-2.004-2.154-1.985l-2.664.037.056 4.09 1.939-.027zm-3.512-5.194l4.153-.057c2.414-.033 3.706 1.138 3.733 3.14.016 1.212-.495 2.22-1.388 2.782-.62.397-1.494.52-2.645.537l-3.764.051-.089-6.453zM88.52 32.912l4.16 1.001 1.226-5.095 1.46.351-1.154 4.792c-.284 1.18-.734 1.393-1.914 1.109l-3.965-.955c-1.18-.284-1.483-.679-1.2-1.858l1.155-4.791 1.459.35-1.227 5.096M100.736 32.611l-1.89 3.629 3.595 1.873.641-1.232 1.188.97-.353.677c-.56 1.077-1.05 1.175-2.125.615l-3.418-1.78c-1.077-.562-1.277-1.018-.716-2.094l1.572-3.019c.561-1.076 1.05-1.174 2.126-.613l3.418 1.78c1.076.56 1.276 1.016.715 2.093l-.283.544-1.442-.483.567-1.088-3.595-1.872M108.159 43.704L107 42.748l3.379-4.09-2.286-1.888.733-.888 5.739 4.74-.733.888-2.296-1.896-3.378 4.09M116.523 42.807l1.004 1.117-4.803 4.312-1.003-1.117 4.802-4.312M119.316 55.593l3.498-2.122-2.57-4.235-3.498 2.122 2.57 4.235zm1.964-6.869l2.465 4.064c.63 1.037.564 1.532-.473 2.161l-2.91 1.765c-1.037.63-1.505.46-2.135-.577l-2.466-4.064c-.63-1.037-.563-1.531.474-2.16l2.91-1.766c1.036-.63 1.505-.46 2.135.577zM126.563 58.719l.29.984-2.366 5.43c-.13.311-.275.615-.463.905.505-.188.858-.318 1.05-.374l3.252-.958.38 1.296-6.19 1.823-.29-.983 2.489-5.676c.102-.225.21-.44.352-.664-.466.19-.786.297-.966.35l-3.348.986-.382-1.296 6.192-1.823M128.538 77.97l-1.385-.104-.301 4.018c-.091 1.21-.433 1.586-1.643 1.495l-.886-.067c-1.21-.09-1.492-.513-1.401-1.723l.298-3.98c.091-1.21.433-1.587 1.644-1.495l.174.013.175 1.343-.76-.057-.343 4.554 1.472.11.302-4.017c.091-1.21.432-1.574 1.642-1.483l.712.053c1.21.091 1.492.501 1.401 1.711l-.274 3.656c-.086 1.148-.42 1.575-1.53 1.492l-.137-.011-.213-1.346.737.055.316-4.216M128.28 88.33l-1.996 6.298-1.049-.333 1.542-4.866-1.372-.435-.9 2.839-1.049-.333.9-2.838-1.527-.484-1.56 4.926-1.158-.367 2.015-6.357 6.154 1.95M122.718 99.403l-1.548-.922-1.729 2.902c-.237.398-.27.625.095.843l.666.397c.365.217.55.08.786-.318l1.73-2.902zm1.712-.698l-2.831 4.75c-.506.85-1.044 1.068-1.818.607l-1.3-.775c-.774-.462-.838-1.038-.332-1.887l.436-.731-3.62 1.308 1.101-1.848 3.428-.987.73-1.225-2.095-1.249.756-1.268 5.545 3.305zM119.067 107.17l-1.175 1.249-5.19-1.294 1.692 5.01-1.029 1.094-2.265-7.012.712-.756 7.255 1.71M111.041 114.977l-1.187.919-3.95-5.106 1.188-.918 3.95 5.105M104.394 118.169l-1.9-3.622-3.59 1.882.645 1.229-1.474.42-.354-.676c-.564-1.074-.366-1.531.709-2.095l3.412-1.788c1.074-.564 1.563-.467 2.126.608l1.58 3.013c.564 1.074.365 1.531-.71 2.094l-3.411 1.79c-1.075.563-1.563.466-2.127-.608l-.284-.543 1.219-.908.57 1.086 3.589-1.882M95.561 123.413l-6.396 1.643-.273-1.067 4.942-1.268-.357-1.393-2.884.74-.273-1.066 2.882-.74-.398-1.55-5.002 1.284-.302-1.175 6.456-1.658 1.605 6.25M83.35 124.553l-.031-1.388-4.027.09c-1.213.028-1.62-.276-1.648-1.49l-.02-.887c-.027-1.213.366-1.535 1.579-1.562l3.99-.09c1.213-.027 1.62.276 1.648 1.49l.004.175-1.32.304-.017-.762-4.565.102.033 1.476 4.027-.09c1.213-.027 1.608.277 1.635 1.49l.016.713c.028 1.213-.353 1.534-1.566 1.56l-3.664.084c-1.152.025-1.608-.265-1.633-1.378l-.003-.137 1.318-.343.017.739 4.227-.096"/>
        <path fill="#998A5C" d="M68.106 51.674c-1.787-1.89-7.678-1.175-7.678-1.175l-2.498 8.376c-.407 1.372.535.955 2.498.955 3.556 0 9.55-6.172 7.678-8.156zM50.399 72.266c-.845-.324.407-1.392 1.48-4.985l4.374-13.926c1.383-3.885-.673-5.06-.673-5.06s3.562-.237 6.117-.237c6.555 0 9.592 2.149 9.592 6.186 0 3.778-6.063 6.352-8.657 6.908-.592.149 5.67 8.257 5.67 8.257s1.483 2.148 3.148 2.371c.222.222.148.741-.074.963-.555.074-1.148.148-2.704.148-1.333 0-2.528-.134-2.851-.48-.324-.348-1.63-2.41-1.63-2.41l-4.644-6.534-1.69-2.167-.663 1.69-1.543 4.628c-1.036 3.222-.036 4.005.698 4.814 0 0-5.234.11-5.95-.166z"/>
        <path stroke="#998A5C" stroke-width="1.368" d="M67.653 50.767c-1.786-1.891-7.68-1.176-7.68-1.176l-2.496 8.376c-.407 1.372.534.956 2.497.956 3.556 0 9.552-6.172 7.68-8.156zM49.828 71.948c-.845-.326.525-1.982 1.599-5.574l4.372-13.926c1.384-3.886-.784-5.07-.784-5.07s3.67-.227 6.228-.227c6.556 0 9.592 2.148 9.592 6.185 0 3.779-6.064 6.353-8.657 6.91-.592.147 5.67 8.256 5.67 8.256s2.076 2.273 3.742 2.495c.222.222-.102 1.269-.323 1.492-.556.074-1.493-.505-3.049-.505-1.334 0-2.527-.136-2.85-.482-.325-.346-1.632-2.407-1.632-2.407l-4.642-6.535-1.69-2.168-.663 1.69-1.543 4.629c-1.036 3.223-.306 4.515.427 5.324 0 0-5.08.188-5.797-.087z"/>
        <path fill="#998A5C" d="M89.63 68.012c-1.785-1.89-7.678-1.175-7.678-1.175l-2.498 8.376c-.408 1.371.535.954 2.498.954 3.556 0 9.552-6.171 7.677-8.155zM71.921 88.604c-.845-.325.409-1.392 1.482-4.984l4.372-13.928c1.385-3.884-.673-5.06-.673-5.06s3.562-.236 6.118-.236c6.556 0 9.593 2.149 9.593 6.186 0 3.78-6.065 6.351-8.657 6.909-.593.147 5.67 8.257 5.67 8.257s1.48 2.148 3.148 2.37c.221.221.147.741-.076.963-.555.074-1.147.148-2.703.148-1.33 0-2.529-.135-2.852-.482-.323-.346-1.63-2.406-1.63-2.406l-4.643-6.536-1.692-2.168-.66 1.69-1.542 4.63c-1.04 3.222-.038 4.004.698 4.813 0 0-5.236.11-5.953-.166z"/>
        <path stroke="#998A5C" stroke-width="1.368" d="M89.176 67.105c-1.786-1.892-7.677-1.176-7.677-1.176L79 74.306c-.408 1.37.534.955 2.498.955 3.556 0 9.55-6.172 7.677-8.156zm-17.825 21.18c-.844-.324.526-1.982 1.6-5.574l4.372-13.926c1.383-3.885-.784-5.07-.784-5.07s3.673-.226 6.228-.226c6.555 0 9.592 2.148 9.592 6.185 0 3.778-6.064 6.353-8.656 6.91-.593.147 5.669 8.255 5.669 8.255s2.076 2.272 3.743 2.496c.222.223-.103 1.269-.325 1.49-.556.076-1.492-.503-3.048-.503-1.332 0-2.529-.137-2.851-.482-.322-.346-1.63-2.408-1.63-2.408l-4.644-6.536-1.691-2.166-.661 1.69-1.544 4.628c-1.036 3.222-.306 4.515.429 5.324 0 0-5.081.188-5.799-.086zm21.892 15.043s-.262-3.595 0-5.013c.223-.224 4.731 2.853 7.175 3.198 2.076.432 4.495-1.21 4.583-3.198.103-2.387-1.375-3.795-3.466-5.326-1.568-1.157-3.695-3.361-3.695-6.272 0-4.518 3.695-7.58 8.55-7.507 2.538.04 6.292 2.124 6.261 2.4-.143 1.28.05 1.004-.324 2.722-.3.298-2.811-2.205-6.376-1.836-2.507.258-3.867.997-3.867 3.199 0 2.465 1.653 3.486 2.886 4.381 2.427 1.718 4.257 3.847 4.257 7.17 0 4.481-3.194 7.897-8.982 7.897-3.211 0-7.002-1.815-7.002-1.815z"/>
        <path fill="#998A5C" d="M94.108 103.846s-.261-3.593 0-5.013c.223-.225 4.733 2.853 7.175 3.197 2.075.433 4.496-1.21 4.582-3.197.105-2.389-1.374-3.796-3.464-5.326-1.568-1.158-3.696-3.361-3.696-6.273 0-4.518 3.696-7.58 8.55-7.505 2.539.037 6.303 1.555 6.273 1.828-.143 1.283-.375 1.554-.748 3.272-.301.298-2.398-2.185-5.965-1.815-2.506.26-3.866.995-3.866 3.2 0 2.464 1.653 3.483 2.886 4.38 2.428 1.717 4.257 3.845 4.257 7.17 0 4.48-3.195 7.897-8.982 7.897-3.212 0-7.002-1.815-7.002-1.815"/>
    </g>
</svg>
